<svg width="275" height="248" viewBox="0 0 275 248" fill="none" xmlns="http://www.w3.org/2000/svg">
<path d="M52.8388 169.462L108.859 201.072C109.548 201.413 110.309 201.591 111.082 201.591C111.854 201.591 112.616 201.413 113.304 201.072L219.374 141.21C220.601 140.517 220.601 139.393 219.374 138.701L163.349 107.092C162.66 106.75 161.899 106.572 161.126 106.572C160.354 106.572 159.593 106.75 158.904 107.092L52.8388 166.954C51.6119 167.651 51.6119 168.77 52.8388 169.462Z" fill="#696F8C"/>
<path d="M83.1152 184.148C84.0699 184.621 85.1251 184.867 86.1952 184.867C87.2654 184.867 88.3205 184.621 89.2752 184.148C90.9795 183.185 90.9795 181.639 89.2752 180.666C88.3205 180.194 87.2654 179.947 86.1952 179.947C85.1251 179.947 84.0699 180.194 83.1152 180.666C81.411 181.629 81.411 183.205 83.1152 184.148Z" fill="#4A4D58"/>
<path d="M108.859 201.077L52.8388 169.467C51.7403 168.85 51.6274 167.887 52.4898 167.195C51.9423 167.618 51.4924 168.15 51.1695 168.755C50.8467 169.36 50.6581 170.025 50.6161 170.707V172.749C50.6574 173.503 50.8803 174.236 51.2665 174.89C51.6527 175.544 52.1915 176.1 52.8388 176.512L108.859 208.121C109.544 208.47 110.309 208.642 111.082 208.623V201.593C110.308 201.608 109.543 201.431 108.859 201.077Z" fill="#7E8295"/>
<path d="M219.374 148.269C220.021 147.857 220.559 147.301 220.946 146.647C221.332 145.993 221.555 145.26 221.597 144.506V142.464C221.554 141.783 221.364 141.118 221.041 140.512C220.717 139.907 220.266 139.376 219.718 138.952C220.586 139.644 220.473 140.608 219.374 141.23L113.304 201.077C112.619 201.426 111.854 201.599 111.082 201.578V208.643C111.854 208.664 112.619 208.491 113.304 208.141L219.374 148.269Z" fill="#4A4D58"/>
<path d="M118.094 194.524L65.2205 164.681C64.4813 164.265 64.4813 163.592 65.2205 163.176L152.189 114.071C152.603 113.866 153.06 113.759 153.524 113.759C153.988 113.759 154.445 113.866 154.859 114.071L207.758 143.909C208.497 144.321 208.497 144.998 207.758 145.414L120.758 194.524C120.345 194.73 119.889 194.837 119.426 194.837C118.963 194.837 118.506 194.73 118.094 194.524Z" fill="#FAFAFA"/>
<path d="M104.342 154.37L135.619 172.016L115.876 183.16C115.531 183.328 115.151 183.415 114.765 183.415C114.379 183.415 113.999 183.328 113.653 183.16L84.5987 166.763C84.4646 166.718 84.3482 166.634 84.2657 166.521C84.1832 166.409 84.1389 166.274 84.1389 166.136C84.1389 165.997 84.1832 165.862 84.2657 165.75C84.3482 165.637 84.4646 165.553 84.5987 165.508L104.342 154.37Z" fill="#E6E6E6"/>
<path d="M135.593 172.016L131.907 157.696C131.824 157.355 131.629 157.048 131.353 156.823C131.073 156.592 130.727 156.45 130.362 156.417L104.321 154.37L135.593 172.016Z" fill="#E0E0E0"/>
<path d="M135.593 172.016L107.601 170.887C107.266 170.874 106.947 170.745 106.7 170.522C106.454 170.3 106.296 169.999 106.256 169.673L104.316 154.365L135.593 172.016Z" fill="#E0E0E0"/>
<path d="M135.593 172.016L107.601 170.887C107.266 170.874 106.947 170.745 106.7 170.522C106.454 170.3 106.296 169.999 106.256 169.673L104.316 154.365L107.771 169.417C107.802 169.551 107.876 169.672 107.982 169.762C108.088 169.853 108.221 169.907 108.361 169.919L135.593 172.016Z" fill="#FAFAFA"/>
<path d="M110.594 170.842L114.767 183.787L115.876 183.16L110.594 170.842Z" fill="#FAFAFA"/>
<path d="M83.4901 166.136L84.5989 165.509L106.426 168.489L83.4901 166.136Z" fill="#FAFAFA"/>
<path d="M122.134 147.933L147.015 161.982C147.359 162.152 147.74 162.241 148.126 162.241C148.513 162.241 148.893 162.152 149.238 161.982L184.55 142.063C184.684 142.018 184.8 141.934 184.883 141.821C184.965 141.709 185.01 141.574 185.01 141.436C185.01 141.297 184.965 141.162 184.883 141.05C184.8 140.937 184.684 140.853 184.55 140.808L159.669 126.76C159.324 126.589 158.943 126.5 158.557 126.5C158.171 126.5 157.79 126.589 157.446 126.76L122.134 146.679C122 146.723 121.883 146.808 121.801 146.92C121.718 147.033 121.674 147.167 121.674 147.306C121.674 147.444 121.718 147.579 121.801 147.692C121.883 147.804 122 147.889 122.134 147.933Z" fill="#E6E6E6"/>
<path d="M141.918 146.076C141.621 145.626 141.445 145.11 141.407 144.576C141.368 144.042 141.468 143.507 141.697 143.021C142.159 142.017 143.165 141.054 144.71 140.186C146.404 139.212 148.274 138.567 150.218 138.284C152.114 138.017 154.044 138.085 155.916 138.485C157.847 138.896 159.699 139.602 161.404 140.577C163.053 141.504 164.176 142.46 164.771 143.447C165.062 143.867 165.236 144.355 165.275 144.86C165.315 145.366 165.219 145.874 164.997 146.332C164.545 147.27 163.596 148.148 162.158 148.961C160.78 149.775 159.23 150.27 157.626 150.406C156.29 150.533 154.947 150.264 153.77 149.634C153.56 149.544 153.37 149.412 153.216 149.246C153.061 149.08 152.944 148.884 152.872 148.67C152.838 148.486 152.855 148.295 152.92 148.119C152.986 147.943 153.099 147.787 153.247 147.667C152.42 147.733 151.588 147.677 150.778 147.501C149.984 147.334 149.222 147.046 148.519 146.648C147.335 145.979 146.715 145.253 146.661 144.471C146.606 143.688 147.172 142.969 148.36 142.313C149.793 141.492 151.432 141.08 153.093 141.124C154.789 141.161 156.446 141.622 157.908 142.464C158.513 142.793 159.052 143.227 159.499 143.743C159.855 144.126 160.087 144.602 160.167 145.113L155.547 147.732C155.172 147.943 154.966 148.128 154.936 148.289C154.905 148.45 155.038 148.62 155.331 148.791C155.97 149.094 156.702 149.155 157.384 148.961C158.39 148.731 159.351 148.347 160.233 147.822C161.393 147.17 162.127 146.468 162.435 145.73C162.59 145.372 162.649 144.982 162.606 144.596C162.564 144.21 162.422 143.84 162.194 143.522C161.575 142.658 160.75 141.952 159.792 141.465C157.822 140.326 155.595 139.68 153.308 139.584C150.989 139.52 148.699 140.109 146.712 141.28C145.449 141.992 144.638 142.745 144.279 143.538C144.099 143.907 144.019 144.315 144.048 144.723C144.077 145.131 144.213 145.524 144.443 145.866C145.065 146.76 145.905 147.489 146.887 147.988C147.539 148.353 148.227 148.654 148.94 148.886C149.605 149.111 150.294 149.262 150.993 149.338C151.068 149.343 151.141 149.362 151.209 149.393C151.245 149.393 151.245 149.458 151.209 149.523L150.531 150.451C150.503 150.487 150.47 150.519 150.434 150.547C150.334 150.58 150.226 150.58 150.126 150.547C149.279 150.442 148.446 150.251 147.641 149.975C146.799 149.702 145.988 149.347 145.218 148.916C143.627 148.083 142.528 147.105 141.918 146.076ZM152.621 146.513C153.328 146.601 154.047 146.469 154.674 146.137L157.359 144.631C157.041 144.104 156.571 143.68 156.009 143.412C155.152 142.921 154.179 142.656 153.185 142.644C152.196 142.628 151.221 142.878 150.367 143.367C149.618 143.788 149.253 144.205 149.274 144.616C149.274 145.028 149.695 145.454 150.48 145.896C151.139 146.253 151.869 146.465 152.621 146.518V146.513Z" fill="#FAFAFA"/>
<path d="M187.06 125.456C187.271 125.562 187.505 125.618 187.743 125.618C187.98 125.618 188.214 125.562 188.425 125.456C188.507 125.428 188.578 125.376 188.628 125.307C188.678 125.238 188.705 125.156 188.705 125.072C188.705 124.987 188.678 124.905 188.628 124.836C188.578 124.768 188.507 124.716 188.425 124.688C188.213 124.585 187.98 124.532 187.743 124.532C187.506 124.532 187.272 124.585 187.06 124.688C186.978 124.716 186.908 124.768 186.858 124.836C186.808 124.905 186.781 124.987 186.781 125.072C186.781 125.156 186.808 125.238 186.858 125.307C186.908 125.376 186.978 125.428 187.06 125.456Z" fill="#4A4D58"/>
<path d="M189.237 131.496C189.659 131.706 190.126 131.816 190.6 131.816C191.073 131.816 191.54 131.706 191.963 131.496C192.717 131.075 192.717 130.382 191.963 129.961C191.54 129.751 191.073 129.641 190.6 129.641C190.126 129.641 189.659 129.751 189.237 129.961C188.467 130.382 188.467 131.075 189.237 131.496Z" fill="#4A4D58"/>
<path d="M187.317 128.822C187.83 128.536 187.794 128.064 187.255 127.763L178.292 122.701C178.004 122.55 177.684 122.468 177.357 122.463C177.03 122.458 176.707 122.529 176.414 122.67C175.9 122.951 175.941 123.428 176.475 123.729L185.438 128.787C185.727 128.935 186.047 129.016 186.373 129.022C186.699 129.028 187.023 128.96 187.317 128.822Z" fill="#4A4D58"/>
<path d="M71.1083 65.0162C71.1367 64.4774 71.2952 63.9528 71.5709 63.4853C71.8466 63.0179 72.2317 62.6209 72.6945 62.3269L153.919 16.4935C154.411 16.2485 154.956 16.1208 155.508 16.1208C156.06 16.1208 156.605 16.2485 157.097 16.4935L158.883 17.497C159.345 17.7905 159.73 18.1867 160.006 18.6532C160.281 19.1197 160.44 19.6433 160.469 20.1812V81.0416C160.438 81.5797 160.278 82.1031 160.002 82.57C159.727 83.037 159.344 83.4345 158.883 83.7309L77.6585 129.564C77.1665 129.807 76.6233 129.933 76.0723 129.933C75.5213 129.933 74.978 129.807 74.4861 129.564L72.6945 128.561C72.234 128.264 71.8507 127.867 71.5752 127.4C71.2998 126.933 71.1399 126.41 71.1083 125.872V65.0162Z" fill="#F7941D"/>
<path opacity="0.4" d="M71.5703 63.486L76.0774 66.0247L160.007 18.661C159.74 18.1889 159.355 17.7903 158.888 17.502L157.092 16.4986C156.6 16.2537 156.057 16.126 155.505 16.126C154.954 16.126 154.41 16.2537 153.919 16.4986L72.6996 62.327C72.2262 62.6104 71.8369 63.01 71.5703 63.486Z" fill="white"/>
<path opacity="0.1" d="M71.1083 65.0115V125.862C71.1377 126.401 71.2972 126.926 71.5738 127.393C71.8503 127.861 72.2362 128.257 72.6997 128.551L74.4861 129.555C74.6242 129.633 74.7705 129.697 74.9224 129.745C75.1346 129.814 75.3528 129.862 75.5743 129.891C75.9915 129.944 76.4148 129.928 76.8269 129.846C76.9311 129.825 77.0339 129.798 77.1349 129.765C77.2004 129.748 77.264 129.725 77.3248 129.695C77.2048 129.745 77.0755 129.771 76.9449 129.771C76.8144 129.771 76.6851 129.745 76.5651 129.695C76.3987 129.586 76.2655 129.436 76.1797 129.259C76.0938 129.082 76.0585 128.886 76.0774 128.692V67.8062C76.0616 67.5302 76.1322 67.256 76.2799 67.0203C76.4275 66.7845 76.6452 66.5984 76.9039 66.4866L76.0774 66.015L71.5703 63.4762C71.2858 63.9415 71.1269 64.4698 71.1083 65.0115Z" fill="#11183C"/>
<path opacity="0.2" d="M76.0774 66.025L113.694 79.7625C114.995 80.2354 116.422 80.2616 117.741 79.8367C119.059 79.4118 120.19 78.561 120.948 77.4244L126.99 68.3932L160.305 18.5007L128.191 68.7193L160.469 81.067C160.437 81.6181 160.26 82.1519 159.956 82.6173L128.104 68.8598L121.081 79.8478C120.302 81.0673 119.099 81.9711 117.693 82.3932C116.287 82.8154 114.773 82.7275 113.427 82.1457L108.433 79.9882L76.5599 129.69C76.3935 129.581 76.2604 129.431 76.1745 129.254C76.0887 129.077 76.0533 128.881 76.0722 128.687V127.683L108.274 79.9481L76.0774 66.025Z" fill="#11183C"/>
<path d="M85.3842 51.8156L79.8299 48.6898L79.7786 48.6597C77.3146 47.3 73.9368 47.5057 70.1946 49.613C62.664 53.8627 56.5605 64.1984 56.5605 72.6927C56.5605 76.9324 58.1005 79.9177 60.5388 81.3125L65.59 84.1273L66.7964 82.1554C68.1706 81.85 69.4895 81.3425 70.708 80.6502C78.2386 76.4006 84.3421 66.0648 84.3421 57.5705C84.3415 56.4239 84.1984 55.2816 83.916 54.1687L85.3842 51.8156Z" fill="#696F8C"/>
<path d="M75.4614 52.5782C67.9257 56.8279 61.8221 67.1636 61.8221 75.658C61.8221 84.1523 67.9257 87.6043 75.4563 83.3546C82.9869 79.1049 89.0955 68.7641 89.0955 60.2748C89.0955 51.7855 82.992 48.3235 75.4614 52.5782Z" fill="#7E8295"/>
<path d="M71.2214 68.9802C71.1729 68.9311 71.1377 68.871 71.1189 68.8053C71.1 68.7397 71.0982 68.6704 71.1136 68.6039C71.1395 68.4229 71.2099 68.2507 71.3189 68.1022L75.5334 61.986C75.6412 61.8405 75.7439 61.695 75.8568 61.5545C75.9507 61.4232 76.0713 61.3122 76.211 61.2284L77.751 60.3755C77.8021 60.3384 77.8632 60.3168 77.9267 60.3136C77.9903 60.3103 78.0534 60.3254 78.1082 60.357C78.163 60.3886 78.207 60.4353 78.2348 60.4912C78.2625 60.5471 78.2728 60.6099 78.2643 60.6715V74.7903C78.2561 74.9681 78.2013 75.1409 78.1052 75.292C78.0202 75.4483 77.8945 75.5799 77.7407 75.6733L76.1699 76.5564C76.1177 76.5951 76.0555 76.6189 75.9902 76.6251C75.925 76.6313 75.8592 76.6196 75.8003 76.5915C75.7466 76.5549 75.7039 76.5049 75.6768 76.4466C75.6497 76.3883 75.6392 76.324 75.6463 76.2604V65.4681L72.9 69.4468C72.8092 69.5923 72.6773 69.7091 72.5201 69.783C72.4632 69.811 72.3995 69.823 72.3361 69.8176C72.2727 69.8123 72.212 69.7899 72.1608 69.7529L71.2214 68.9802Z" fill="#FAFAFA"/>
<path d="M196.993 117.643V116.745H197.219C197.56 116.135 198.078 115.637 198.708 115.315C199.992 114.679 201.411 114.348 202.85 114.348C204.29 114.348 205.709 114.679 206.993 115.315C207.623 115.637 208.141 116.135 208.482 116.745H208.707V117.613C208.707 118.471 208.153 119.334 206.993 119.991C205.712 120.622 204.297 120.95 202.863 120.949C201.428 120.948 200.014 120.619 198.733 119.986C197.558 119.344 196.988 118.481 196.993 117.643Z" fill="#4A4D58"/>
<path d="M206.993 114.407C205.71 113.769 204.29 113.436 202.85 113.436C201.411 113.436 199.991 113.769 198.708 114.407C196.418 115.696 196.418 117.789 198.708 119.083C199.992 119.719 201.411 120.05 202.85 120.05C204.29 120.05 205.709 119.719 206.993 119.083C209.282 117.789 209.282 115.696 206.993 114.407Z" fill="#7E8295"/>
<path d="M204.38 82.3563V116.364C204.368 116.494 204.32 116.618 204.243 116.723C204.165 116.829 204.06 116.913 203.939 116.966C203.608 117.131 203.242 117.218 202.871 117.218C202.499 117.218 202.133 117.131 201.803 116.966C201.681 116.913 201.576 116.829 201.499 116.723C201.421 116.618 201.374 116.494 201.362 116.364V82.3563H204.38Z" fill="#696F8C"/>
<path d="M201.341 86.0592V87.1229L204.36 88.8238V87.7651L201.341 86.0592Z" fill="#4A4D58"/>
<path d="M220.596 73.35L220.34 73.8517L217.578 79.2604L216.269 81.8544L211.834 90.5494L211.346 91.5077H211.259C211.08 91.5136 210.903 91.4738 210.745 91.3923L190.977 80.2237C190.83 80.1326 190.706 80.0087 190.617 79.8623C190.528 79.7158 190.475 79.5509 190.464 79.3808V71.915C190.464 68.1921 192.974 63.7568 196.069 62.0108C197.537 61.1829 198.867 61.1177 199.868 61.6646L220.596 73.35Z" fill="#7E8295"/>
<path d="M216.864 73.7461C215.612 74.1977 211.069 77.8653 211.069 83.6453C211.069 88.5021 211.069 91.0208 211.069 91.4774H211.254H211.341L211.829 90.5191L216.269 81.8541L217.578 79.2852L217.881 78.6982L216.864 73.7461Z" fill="#696F8C"/>
<path d="M222.224 85.3662C222.174 85.4481 222.103 85.5156 222.018 85.5619L221.967 85.592L211.757 91.387C211.63 91.4529 211.49 91.4906 211.346 91.4974H211.259V83.6453C211.284 82.2246 211.585 80.8216 212.147 79.511L212.66 79.792L216.279 81.834L221.895 85.01L222.182 85.1705C222.214 85.1919 222.235 85.224 222.243 85.2604C222.25 85.2968 222.244 85.3346 222.224 85.3662Z" fill="#696F8C"/>
<path d="M220.596 73.35C219.606 72.8483 218.297 72.9336 216.864 73.7464C215.107 74.826 213.686 76.3568 212.758 78.1717C212.522 78.6066 212.312 79.0538 212.126 79.5113C211.565 80.822 211.264 82.2249 211.238 83.6456V91.4927H211.325C211.469 91.4859 211.609 91.4482 211.736 91.3823L221.941 85.6174L221.993 85.5873C222.073 85.5354 222.143 85.469 222.198 85.3916C222.342 85.2157 222.424 84.9995 222.434 84.7745V77.3388C222.46 75.3318 221.741 73.942 220.596 73.35ZM221.736 85.0906L211.983 90.6096C211.9 90.6548 211.834 90.6097 211.834 90.5244V83.6456C211.86 82.3229 212.136 81.0164 212.65 79.7923C212.656 79.7656 212.666 79.7402 212.681 79.717C212.877 79.2325 213.104 78.76 213.358 78.3021C214.223 76.6354 215.534 75.2291 217.152 74.233C217.779 73.8443 218.499 73.6245 219.241 73.5958C219.624 73.5917 220.002 73.6814 220.34 73.8567C221.315 74.3585 221.88 75.5978 221.88 77.3187V84.8447C221.877 84.8938 221.862 84.9416 221.838 84.9843C221.813 85.0269 221.778 85.0633 221.736 85.0906Z" fill="#7E8295"/>
<path d="M221.885 77.339V85.0306L212.645 79.8126C212.651 79.786 212.661 79.7605 212.676 79.7373C213.666 77.319 215.335 75.2669 217.147 74.2534C217.774 73.8646 218.494 73.6448 219.236 73.6162C220.874 73.5961 221.885 75.026 221.885 77.339Z" fill="#4A4D58"/>
<path d="M204.976 81.152L205.792 80.6904C205.966 80.6134 206.158 80.5827 206.348 80.6012C206.538 80.6197 206.72 80.6868 206.875 80.7957C207.323 81.0818 207.696 81.4671 207.964 81.9204C208.231 82.3737 208.386 82.8822 208.415 83.4047C208.434 83.5883 208.403 83.7734 208.325 83.9415C208.248 84.1097 208.126 84.2551 207.973 84.3631L207.219 84.7895L207.08 84.5637C206.925 84.5305 206.777 84.4747 206.639 84.3982C206.19 84.1121 205.817 83.7268 205.55 83.2735C205.282 82.8202 205.128 82.3117 205.099 81.7892C205.1 81.6591 205.115 81.5296 205.145 81.4028L204.976 81.152Z" fill="#E0E0E0"/>
<path d="M206.1 81.2376C206.548 81.5229 206.921 81.9074 207.188 82.3598C207.456 82.8122 207.611 83.3199 207.64 83.8416C207.64 84.805 206.947 85.1913 206.1 84.7146C205.652 84.4282 205.279 84.0429 205.012 83.5896C204.744 83.1364 204.589 82.6281 204.56 82.1056C204.555 81.1473 205.248 80.756 206.1 81.2376Z" fill="#FAFAFA"/>
<path d="M206.1 83.39C205.981 83.39 205.868 83.344 205.784 83.2621C205.7 83.1803 205.653 83.0693 205.653 82.9535V70.6058C205.653 70.49 205.7 70.379 205.784 70.2972C205.868 70.2153 205.981 70.1693 206.1 70.1693C206.218 70.1693 206.332 70.2153 206.415 70.2972C206.499 70.379 206.546 70.49 206.546 70.6058V82.9535C206.546 83.0693 206.499 83.1803 206.415 83.2621C206.332 83.344 206.218 83.39 206.1 83.39Z" fill="#EBEBEB"/>
<path d="M205.653 71.8244L201.177 69.3007L202.578 71.9348L201.177 72.9884L205.653 75.5171V71.8244Z" fill="#97D0F1"/>
<path d="M219.554 79.8477C219.551 79.7806 219.532 79.7152 219.498 79.6568C219.464 79.5983 219.416 79.5486 219.359 79.5115L209.236 73.8018C209.175 73.7721 209.107 73.7567 209.039 73.7567C208.97 73.7567 208.902 73.7721 208.841 73.8018L208.615 73.9272C208.558 73.9643 208.51 74.014 208.476 74.0725C208.442 74.1309 208.423 74.1963 208.42 74.2634V81.8546C208.424 81.9214 208.444 81.9864 208.478 82.0447C208.512 82.1029 208.559 82.1529 208.615 82.1908L218.753 87.8754C218.815 87.9051 218.883 87.9205 218.951 87.9205C219.02 87.9205 219.087 87.9051 219.149 87.8754L219.375 87.75C219.432 87.7129 219.479 87.6632 219.513 87.6047C219.547 87.5463 219.567 87.4809 219.57 87.4138L219.554 79.8477Z" fill="#F0F0F0"/>
<path d="M219.498 79.6468L218.938 79.9628L208.487 74.0625C208.52 74.0038 208.568 73.954 208.625 73.9169L208.851 73.7915C208.912 73.7595 208.98 73.7427 209.049 73.7427C209.118 73.7427 209.186 73.7595 209.246 73.7915L219.369 79.5012C219.423 79.5394 219.467 79.5892 219.498 79.6468Z" fill="#FAFAFA"/>
<path d="M219.554 79.8474V87.4286C219.551 87.4957 219.532 87.5611 219.498 87.6195C219.464 87.678 219.416 87.7277 219.359 87.7648L219.133 87.8902L219.082 87.9153H219C218.947 87.9253 218.893 87.9253 218.841 87.9153H218.805H218.779C218.794 87.9228 218.811 87.9267 218.828 87.9267C218.845 87.9267 218.862 87.9228 218.877 87.9153C218.898 87.9018 218.914 87.883 218.925 87.8609C218.936 87.8388 218.941 87.8143 218.938 87.7899V80.1836C218.94 80.1492 218.93 80.1152 218.911 80.0865C218.891 80.0577 218.863 80.0355 218.83 80.023L218.938 79.9628L219.498 79.6467C219.535 79.7075 219.554 79.7768 219.554 79.8474Z" fill="#E0E0E0"/>
<path d="M218.938 79.9628L214.246 81.6737C214.084 81.7321 213.907 81.7351 213.743 81.6822C213.579 81.6294 213.438 81.5238 213.343 81.3827L212.593 80.2589L208.441 74.0374L212.439 80.299L208.42 81.8544C208.424 81.922 208.445 81.9876 208.482 82.045L212.455 80.3291L213.328 81.6988C213.424 81.8512 213.575 81.9641 213.75 82.0167C213.926 82.0693 214.115 82.0579 214.282 81.9848L214.903 81.7189L218.877 87.8752C218.898 87.8617 218.914 87.8429 218.925 87.8208C218.936 87.7987 218.941 87.7741 218.938 87.7497V87.6243L214.924 81.6737L218.938 79.9628Z" fill="#E0E0E0"/>
<path d="M227.388 81.0617L225.334 83.3546L225.293 83.4048L223.373 85.5773C223.259 85.6999 223.128 85.8063 222.983 85.8934L212.203 91.9644C212.167 91.9851 212.127 91.9988 212.085 92.0045H212.08L215.961 87.6244L216.187 87.3735C219.048 84.3213 222.331 81.6735 225.94 79.5063C227.352 78.7086 228.255 78.4226 228.599 78.5881C229.02 78.8139 228.63 79.6618 227.388 81.0617Z" fill="#696F8C"/>
</svg>
