<svg width="255" height="76" viewBox="0 0 255 76" fill="none" xmlns="http://www.w3.org/2000/svg">
<g clip-path="url(#clip0_1036_133)">
<path d="M97 28.1769C85.3126 34.5184 73.7505 40.7917 62.2101 47.0535C62.1788 47.1735 62.1462 47.2462 62.1426 47.32C62.092 48.2406 62.045 49.1612 61.9992 50.0817C61.9136 51.8075 61.8316 53.5334 61.7412 55.2592C61.6725 56.5823 61.5894 57.9044 61.517 59.2276C61.4314 60.7988 61.3507 62.3712 61.2675 63.9435C61.2253 64.7488 61.1916 65.5551 61.1434 66.3592C61.0361 68.1588 60.9155 69.9585 60.8155 71.7581C60.7528 72.8898 60.7191 74.0215 60.6721 75.1544C60.6624 75.3955 60.6516 75.6377 60.6371 75.9988C51.17 67.567 41.8017 59.223 32.3997 50.8477C34.2499 49.7726 36.0484 48.7286 37.8962 47.6545C40.3589 49.9571 42.8118 52.2436 45.2575 54.5381C47.7045 56.8361 50.2213 59.0672 52.4609 61.341C53.1179 61.912 53.6579 62.3792 54.2751 62.9157C54.3329 62.4392 54.404 62.0505 54.4233 61.6605C54.4824 60.4712 54.5161 59.2806 54.5716 58.0913C54.6511 56.4035 54.7415 54.7158 54.8271 53.0281C54.8657 52.2609 54.8946 51.4938 54.9416 50.7278C55.0019 49.7703 55.0863 48.8139 55.1405 47.8564C55.1731 47.2808 55.155 46.7028 55.1815 46.1272C55.2116 45.4961 55.2683 44.8651 55.3153 44.1937C61.6231 40.569 67.9321 36.9444 74.3363 33.2655C74.1387 33.2217 74.0386 33.1813 73.9374 33.1813C67.5102 33.1882 61.0807 33.299 54.656 33.1744C50.2804 33.089 45.906 33.1767 41.5317 33.0821C41.4931 33.0821 41.4533 33.0948 41.375 33.1086C39.8478 35.4874 38.3085 37.8881 36.7801 40.2691C36.8078 40.3245 36.8138 40.3429 36.8259 40.3568C36.8379 40.3706 36.8548 40.3868 36.8717 40.3914C36.9102 40.4018 36.95 40.4087 36.9898 40.411C37.0501 40.4156 37.1103 40.4179 37.1706 40.4179C41.8704 40.4202 46.5714 40.4225 51.2712 40.426C51.2881 40.426 51.3062 40.4422 51.3014 40.4398C49.5777 42.0849 47.8491 43.7357 46.0362 45.4673H33.4158C31.6547 48.2117 29.9033 50.94 28.1471 53.6764C24.8768 55.3745 21.603 57.0738 18.3304 58.7731C18.3123 58.7581 18.2942 58.7442 18.2773 58.7292C18.6185 58.2528 18.9801 57.789 19.2947 57.2987C19.7033 56.6631 20.0625 55.9998 20.4651 55.3618C21.1787 54.2278 21.9068 53.1031 22.6324 51.976C23.874 50.046 25.1167 48.116 26.3643 46.1895C26.5065 45.9703 26.5752 45.6876 26.8838 45.5884C26.9405 45.57 26.967 45.4638 27.0056 45.3969C27.5046 44.5456 27.9819 43.6815 28.5087 42.8463C29.555 41.1862 30.629 39.5423 31.6921 37.8927C32.5564 36.5522 33.3736 35.1817 34.3054 33.885C34.8104 33.1825 35.1769 32.4107 35.6795 31.7105C36.1786 31.016 36.5968 30.2673 37.0597 29.5486C37.396 29.026 37.7468 28.5138 38.1144 27.9624C43.165 27.9612 48.2168 27.967 53.2746 27.9601C53.3083 27.8124 53.3457 27.7374 53.3373 27.6682C52.8889 24.1105 52.438 20.5516 51.9824 16.995C51.9788 16.9708 51.9245 16.9523 51.8715 16.9154C50.1273 19.4833 48.3843 22.0513 46.6365 24.6273H39.5934C40.5216 23.2395 41.428 21.9071 42.3116 20.5596C43.206 19.1961 44.0823 17.8221 44.9574 16.447C45.8301 15.0765 46.7462 13.7326 47.6298 12.3678C48.5133 11.0031 49.3944 9.63608 50.2961 8.28174C51.2013 6.92048 52.0885 5.54883 52.9817 4.18065C53.8725 2.81593 54.7632 1.4512 55.7071 0.00341797C56.6424 9.42728 57.567 18.7508 58.4987 28.1308C58.7663 28.1493 58.9785 28.1758 59.1906 28.1769C60.0344 28.1827 60.8782 28.1827 61.7219 28.1827C73.3335 28.1827 84.945 28.1804 96.5565 28.1793C96.6541 28.1793 96.7529 28.1793 97 28.1793V28.1769Z" fill="#F7941D"/>
<path d="M0.0445994 28.0651C0.986008 28.0651 1.92862 28.0674 2.87003 28.0651C5.25911 28.0582 7.64939 28.0547 10.0385 28.0386C14.4948 28.0074 18.9511 27.974 23.4074 27.9313C26.2377 27.9036 29.0667 27.8586 31.897 27.8148C32.3779 27.8078 32.8577 27.764 33.3374 27.7444C33.4724 27.7386 33.6098 27.7594 33.8461 27.7744C32.7564 29.2764 31.7101 30.7196 30.6361 32.1985H14.983C15.3952 32.7245 15.9196 32.938 16.3089 33.2944C16.7091 33.6624 17.184 33.9543 17.6312 34.275C18.0652 34.5853 18.5075 34.8841 18.9391 35.1956C19.3875 35.5197 19.8262 35.8554 20.271 36.1831C20.7158 36.5107 21.1642 36.836 21.6114 37.1613C22.0586 37.4867 22.5058 37.8131 22.9542 38.1361C23.3857 38.4476 23.8233 38.7533 24.2524 39.0683C24.696 39.3959 25.1323 39.7327 25.629 40.1088C24.6454 41.7089 23.6075 43.2686 22.5588 44.8813C15.0276 39.2897 7.46015 33.8043 0 28.1874C0.0144647 28.147 0.0301347 28.1055 0.0445994 28.0651Z" fill="#F7941D"/>
</g>
<path d="M80.3616 54.2814V58H76.8947V48.2143H88.6096V50.5209H80.3616V51.9608H88.6096V54.2814H80.3616ZM99.0046 48.2143L104.722 58H100.766L99.6477 56.0568H92.9095L91.8051 58H87.9747L93.6924 48.2143H99.0046ZM96.3485 50.2833H96.2227L94.2236 53.7502H98.3336L96.3485 50.2833ZM117.968 48.2143L112.251 58H107.945L102.227 48.2143H106.337L110.182 55.0503H110.308L114.18 48.2143H117.968ZM125.884 58.1398H124.388C121.947 58.1398 120.227 57.795 119.23 57.1053C118.233 56.4156 117.734 55.1854 117.734 53.4147V52.7996C117.734 51.0288 118.233 49.7986 119.23 49.109C120.227 48.4193 121.947 48.0745 124.388 48.0745H125.884C128.326 48.0745 130.045 48.4193 131.043 49.109C132.049 49.7986 132.552 51.0288 132.552 52.7996V53.4147C132.552 55.1854 132.049 56.4156 131.043 57.1053C130.045 57.795 128.326 58.1398 125.884 58.1398ZM124.906 55.7073H125.367C126.411 55.7073 127.194 55.6235 127.716 55.4557C128.247 55.288 128.596 55.0456 128.764 54.7288C128.932 54.4026 129.016 53.918 129.016 53.2749V52.9534C129.016 52.4687 128.974 52.0866 128.89 51.807C128.806 51.5181 128.634 51.2712 128.373 51.0661C128.112 50.8518 127.743 50.7073 127.268 50.6328C126.793 50.5489 126.159 50.5069 125.367 50.5069H124.906C124.272 50.5069 123.741 50.5349 123.312 50.5908C122.883 50.6467 122.534 50.7306 122.263 50.8425C121.993 50.945 121.784 51.1034 121.634 51.3178C121.495 51.5228 121.397 51.7511 121.341 52.0028C121.294 52.2451 121.271 52.5619 121.271 52.9534V53.2749C121.271 53.918 121.35 54.4026 121.509 54.7288C121.676 55.0456 122.021 55.288 122.543 55.4557C123.074 55.6235 123.862 55.7073 124.906 55.7073ZM141.172 58.1398H139.48C137.905 58.1398 136.707 57.9907 135.887 57.6924C135.077 57.3942 134.517 56.9282 134.21 56.2945C133.902 55.6607 133.748 54.7381 133.748 53.5265V48.2143H137.271V53.4147C137.271 54.356 137.453 54.9757 137.817 55.274C138.189 55.5629 138.958 55.7073 140.123 55.7073H140.529C141.694 55.7073 142.458 55.5629 142.821 55.274C143.185 54.9757 143.366 54.356 143.366 53.4147V48.2143H146.903V53.5265C146.903 54.7381 146.749 55.6607 146.442 56.2945C146.134 56.9282 145.571 57.3942 144.75 57.6924C143.94 57.9907 142.747 58.1398 141.172 58.1398ZM151.884 54.8965V58H148.417V48.2143H157.448C159.098 48.2143 160.258 48.4053 160.929 48.7875C161.6 49.1602 161.935 49.7986 161.935 50.7027V51.1919C161.935 51.9562 161.758 52.506 161.404 52.8415C161.05 53.1677 160.458 53.3681 159.629 53.4427V53.5405C160.067 53.5964 160.412 53.6617 160.663 53.7362C160.915 53.8108 161.143 53.9319 161.348 54.0997C161.563 54.2581 161.712 54.4818 161.796 54.7707C161.889 55.0503 161.935 55.4138 161.935 55.8611V58H158.469V56.0568C158.469 55.5909 158.333 55.2833 158.063 55.1342C157.802 54.9757 157.196 54.8965 156.246 54.8965H151.884ZM156.246 50.5209H151.884V52.5899H156.945C157.513 52.5899 157.909 52.5247 158.133 52.3942C158.357 52.2544 158.469 52.0028 158.469 51.6393V51.5554C158.469 51.1453 158.324 50.8704 158.035 50.7306C157.746 50.5908 157.15 50.5209 156.246 50.5209ZM167.01 48.2143V58H163.544V48.2143H167.01ZM176.111 50.8285V58H172.644V50.8285H168.142V48.2143H180.612V50.8285H176.111ZM193.443 55.6934V58H181.728V48.2143H193.443V50.5209H185.195V51.9468H193.443V54.2535H185.195V55.6934H193.443Z" fill="#F0F0F0"/>
<path d="M82.5821 73.1165H81.7549C80.9938 73.1165 80.3453 73.0854 79.8094 73.0233C79.2736 72.9689 78.7493 72.8602 78.2367 72.6971C77.7241 72.5262 77.3125 72.2738 77.0019 71.9399C76.699 71.5982 76.4971 71.1671 76.3961 70.6468H79.4949C79.6114 70.8953 79.8716 71.0623 80.2754 71.1477C80.6793 71.2254 81.3783 71.2642 82.3724 71.2642C83.4053 71.2642 84.1043 71.2137 84.4693 71.1128C84.8343 71.0118 85.0207 70.8099 85.0285 70.507V70.4487C85.0285 70.2546 84.9547 70.1148 84.8071 70.0293C84.6673 69.9439 84.4033 69.8934 84.015 69.8779L80.2405 69.7497C78.8736 69.7031 77.9377 69.5168 77.4329 69.1906C76.9281 68.8566 76.6757 68.2935 76.6757 67.5014V67.3849C76.6757 66.383 77.0718 65.6918 77.8639 65.3112C78.6561 64.9229 79.9997 64.7287 81.8947 64.7287H82.4772C83.2228 64.7287 83.8635 64.7598 84.3994 64.8219C84.9353 64.8841 85.4556 65.0045 85.9605 65.1831C86.4653 65.3539 86.873 65.618 87.1837 65.9753C87.4943 66.3247 87.7001 66.7674 87.8011 67.3033H84.6906C84.5819 67.0315 84.3334 66.8451 83.9451 66.7441C83.5567 66.6354 82.9238 66.581 82.0462 66.581C81.386 66.581 80.8773 66.6082 80.5201 66.6626C80.1706 66.7092 79.9337 66.783 79.8094 66.8839C79.6852 66.9849 79.623 67.1247 79.623 67.3033V67.3266C79.623 67.5208 79.6929 67.6645 79.8327 67.7577C79.9725 67.8431 80.2405 67.8936 80.6366 67.9091L84.3761 68.0256C85.7508 68.08 86.6866 68.2664 87.1837 68.5848C87.6885 68.9032 87.9409 69.443 87.9409 70.2041V70.2973C87.9409 71.3846 87.5332 72.1263 86.7177 72.5224C85.9022 72.9185 84.5237 73.1165 82.5821 73.1165ZM91.9328 70.6817V73H89.0437V64.8452H96.2898C97.7576 64.8452 98.7945 65.0549 99.4002 65.4743C100.006 65.8859 100.309 66.6315 100.309 67.7111V67.8742C100.309 68.8605 100.002 69.575 99.3886 70.0177C98.775 70.4604 97.7421 70.6817 96.2898 70.6817H91.9328ZM95.8471 66.7674H91.9328V68.7479H95.8587C96.4956 68.7479 96.915 68.6857 97.1169 68.5615C97.3188 68.4295 97.4198 68.1809 97.4198 67.8159V67.7111C97.4198 67.346 97.315 67.0975 97.1053 66.9655C96.9033 66.8334 96.4839 66.7674 95.8471 66.7674ZM107.809 73.1165H106.563C104.528 73.1165 103.095 72.8291 102.264 72.2544C101.433 71.6797 101.017 70.6545 101.017 69.1789V68.6663C101.017 67.1907 101.433 66.1655 102.264 65.5908C103.095 65.0161 104.528 64.7287 106.563 64.7287H107.809C109.844 64.7287 111.277 65.0161 112.108 65.5908C112.947 66.1655 113.366 67.1907 113.366 68.6663V69.1789C113.366 70.6545 112.947 71.6797 112.108 72.2544C111.277 72.8291 109.844 73.1165 107.809 73.1165ZM106.994 71.0895H107.378C108.248 71.0895 108.9 71.0196 109.335 70.8798C109.778 70.74 110.069 70.538 110.209 70.274C110.349 70.0022 110.419 69.5983 110.419 69.0624V68.7945C110.419 68.3906 110.384 68.0722 110.314 67.8392C110.244 67.5984 110.1 67.3926 109.883 67.2218C109.665 67.0431 109.358 66.9228 108.962 66.8606C108.566 66.7907 108.038 66.7558 107.378 66.7558H106.994C106.465 66.7558 106.023 66.7791 105.665 66.8257C105.308 66.8723 105.017 66.9422 104.792 67.0354C104.567 67.1208 104.392 67.2528 104.268 67.4315C104.151 67.6023 104.069 67.7926 104.023 68.0023C103.984 68.2042 103.965 68.4683 103.965 68.7945V69.0624C103.965 69.5983 104.031 70.0022 104.163 70.274C104.302 70.538 104.59 70.74 105.025 70.8798C105.467 71.0196 106.124 71.0895 106.994 71.0895ZM117.485 70.4138V73H114.596V64.8452H122.121C123.496 64.8452 124.463 65.0045 125.022 65.3229C125.581 65.6335 125.861 66.1655 125.861 66.9189V67.3266C125.861 67.9635 125.713 68.4217 125.418 68.7013C125.123 68.9731 124.63 69.1401 123.939 69.2022V69.2838C124.304 69.3304 124.591 69.3847 124.801 69.4469C125.01 69.509 125.201 69.61 125.372 69.7497C125.55 69.8818 125.674 70.0682 125.744 70.3089C125.822 70.5419 125.861 70.8448 125.861 71.2176V73H122.972V71.3807C122.972 70.9924 122.859 70.7361 122.634 70.6118C122.416 70.4798 121.912 70.4138 121.119 70.4138H117.485ZM121.119 66.7674H117.485V68.4916H121.702C122.176 68.4916 122.506 68.4372 122.692 68.3285C122.878 68.212 122.972 68.0023 122.972 67.6994V67.6295C122.972 67.2878 122.851 67.0587 122.611 66.9422C122.37 66.8257 121.873 66.7674 121.119 66.7674ZM133.282 67.0237V73H130.393V67.0237H126.642V64.8452H137.033V67.0237H133.282ZM143.969 70.6817V73H141.08V64.8452H148.326C149.794 64.8452 150.831 65.0549 151.437 65.4743C152.043 65.8859 152.346 66.6315 152.346 67.7111V67.8742C152.346 68.8605 152.039 69.575 151.425 70.0177C150.812 70.4604 149.779 70.6817 148.326 70.6817H143.969ZM147.884 66.7674H143.969V68.7479H147.895C148.532 68.7479 148.952 68.6857 149.154 68.5615C149.355 68.4295 149.456 68.1809 149.456 67.8159V67.7111C149.456 67.346 149.352 67.0975 149.142 66.9655C148.94 66.8334 148.521 66.7674 147.884 66.7674ZM156.199 70.4138V73H153.31V64.8452H160.836C162.211 64.8452 163.177 65.0045 163.737 65.3229C164.296 65.6335 164.575 66.1655 164.575 66.9189V67.3266C164.575 67.9635 164.428 68.4217 164.133 68.7013C163.838 68.9731 163.344 69.1401 162.653 69.2022V69.2838C163.018 69.3304 163.306 69.3847 163.515 69.4469C163.725 69.509 163.915 69.61 164.086 69.7497C164.265 69.8818 164.389 70.0682 164.459 70.3089C164.537 70.5419 164.575 70.8448 164.575 71.2176V73H161.686V71.3807C161.686 70.9924 161.574 70.7361 161.348 70.6118C161.131 70.4798 160.626 70.4138 159.834 70.4138H156.199ZM159.834 66.7674H156.199V68.4916H160.416C160.89 68.4916 161.22 68.4372 161.407 68.3285C161.593 68.212 161.686 68.0023 161.686 67.6994V67.6295C161.686 67.2878 161.566 67.0587 161.325 66.9422C161.084 66.8257 160.587 66.7674 159.834 66.7674ZM175.678 71.0778V73H165.915V64.8452H175.678V66.7674H168.805V67.9557H175.678V69.8779H168.805V71.0778H175.678ZM188.551 68.7828V69.0624C188.551 70.0798 188.388 70.8681 188.061 71.4273C187.735 71.9787 187.195 72.3787 186.442 72.6272C185.689 72.8757 184.625 73 183.25 73H177.087V64.8452H183.134C185.168 64.8452 186.578 65.1326 187.362 65.7073C188.155 66.2743 188.551 67.2994 188.551 68.7828ZM182.469 66.8723H179.976V70.973H182.469C183.394 70.973 184.073 70.9108 184.508 70.7866C184.951 70.6623 185.242 70.4681 185.382 70.2041C185.529 69.94 185.603 69.5245 185.603 68.9576V68.911C185.603 68.344 185.529 67.9285 185.382 67.6645C185.242 67.3926 184.951 67.1946 184.508 67.0703C184.065 66.9383 183.386 66.8723 182.469 66.8723ZM192.673 64.8452V73H189.784V64.8452H192.673ZM200.489 73.1165H199.278C197.313 73.1165 195.926 72.8291 195.119 72.2544C194.319 71.6797 193.919 70.6545 193.919 69.1789V68.6663C193.919 67.1907 194.319 66.1655 195.119 65.5908C195.926 65.0161 197.313 64.7287 199.278 64.7287H200.489C202.26 64.7287 203.553 64.9617 204.368 65.4277C205.184 65.8859 205.662 66.682 205.801 67.8159H202.842C202.71 67.3965 202.454 67.1169 202.073 66.9771C201.701 66.8296 201.017 66.7558 200.023 66.7558H199.744C198.92 66.7558 198.303 66.8257 197.891 66.9655C197.48 67.0975 197.204 67.2994 197.064 67.5713C196.932 67.8431 196.866 68.2508 196.866 68.7945V69.0624C196.866 69.5983 196.932 70.0022 197.064 70.274C197.204 70.5458 197.48 70.7516 197.891 70.8914C198.303 71.0234 198.92 71.0895 199.744 71.0895H200.023C201.017 71.0895 201.701 71.0196 202.073 70.8798C202.454 70.7322 202.71 70.4487 202.842 70.0293H205.801C205.662 71.1632 205.184 71.9632 204.368 72.4292C203.553 72.8874 202.26 73.1165 200.489 73.1165ZM213.078 67.0237V73H210.188V67.0237H206.437V64.8452H216.829V67.0237H213.078ZM220.648 64.8452V73H217.759V64.8452H220.648ZM228.686 73.1165H227.439C225.404 73.1165 223.971 72.8291 223.14 72.2544C222.309 71.6797 221.894 70.6545 221.894 69.1789V68.6663C221.894 67.1907 222.309 66.1655 223.14 65.5908C223.971 65.0161 225.404 64.7287 227.439 64.7287H228.686C230.72 64.7287 232.153 65.0161 232.984 65.5908C233.823 66.1655 234.242 67.1907 234.242 68.6663V69.1789C234.242 70.6545 233.823 71.6797 232.984 72.2544C232.153 72.8291 230.72 73.1165 228.686 73.1165ZM227.87 71.0895H228.255C229.124 71.0895 229.777 71.0196 230.212 70.8798C230.654 70.74 230.946 70.538 231.085 70.274C231.225 70.0022 231.295 69.5983 231.295 69.0624V68.7945C231.295 68.3906 231.26 68.0722 231.19 67.8392C231.12 67.5984 230.977 67.3926 230.759 67.2218C230.542 67.0431 230.235 66.9228 229.839 66.8606C229.443 66.7907 228.915 66.7558 228.255 66.7558H227.87C227.342 66.7558 226.899 66.7791 226.542 66.8257C226.185 66.8723 225.894 66.9422 225.668 67.0354C225.443 67.1208 225.268 67.2528 225.144 67.4315C225.028 67.6023 224.946 67.7926 224.899 68.0023C224.861 68.2042 224.841 68.4683 224.841 68.7945V69.0624C224.841 69.5983 224.907 70.0022 225.039 70.274C225.179 70.538 225.466 70.74 225.901 70.8798C226.344 71.0196 227 71.0895 227.87 71.0895ZM247.693 64.8452V73H243.336L238.326 67.28H238.221V73H235.472V64.8452H239.829L244.838 70.5769H244.943V64.8452H247.693Z" fill="#939393"/>
<defs>
<clipPath id="clip0_1036_133">
<rect width="97" height="76" fill="white"/>
</clipPath>
</defs>
</svg>
