<svg width="101" height="89" viewBox="0 0 101 89" fill="none" xmlns="http://www.w3.org/2000/svg">
<g clip-path="url(#clip0_991_1191)">
<path d="M4.87348 30.3284L0.00350992 27.5667C-0.0621806 24.6119 0.589495 21.6856 1.90195 19.042C3.02474 24.173 8.93362 26.6141 11.6599 31.0941C12.4996 32.498 13.0147 34.074 13.1672 35.7056C13.3196 37.3371 13.1055 38.9823 12.5406 40.5191L12.8609 44.4974C10.3439 43.7383 8.02031 42.4389 6.05015 40.6886C4.07998 38.9384 2.51009 36.7789 1.44866 34.3589C0.866555 32.9954 0.45731 31.5635 0.230582 30.097C2.50117 30.3403 4.87348 30.3284 4.87348 30.3284Z" fill="#F2F2F2"/>
<path d="M92.4192 80.5719L92.5686 77.1912C94.1253 76.3534 95.8616 75.9108 97.6268 75.902C95.1974 77.9018 95.501 81.7567 93.8539 84.4459C93.3339 85.2807 92.6339 85.9869 91.8058 86.5123C90.9778 87.0377 90.043 87.3687 89.0706 87.4809L87.0376 88.7341C86.7587 87.1683 86.8202 85.5602 87.2179 84.0207C87.6156 82.4811 88.3401 81.0467 89.3415 79.8162C89.91 79.1315 90.5619 78.5216 91.2818 78.0009C91.7688 79.2936 92.4192 80.5719 92.4192 80.5719Z" fill="#F2F2F2"/>
<path d="M87.1811 86.9943L85.3401 86.9942L84.4644 79.8452L87.1814 79.8454L87.1811 86.9943Z" fill="#FFB6B6"/>
<path d="M87.6505 88.7909L81.7149 88.7906V88.7151C81.7149 88.0981 81.9584 87.5065 82.3916 87.0703C82.8249 86.6341 83.4125 86.389 84.0252 86.389L85.1096 85.5608L87.1325 86.3891L87.6506 86.3891L87.6505 88.7909Z" fill="#2F2E41"/>
<path d="M78.6288 86.9943L76.788 86.9942L75.9123 79.8452L78.6293 79.8454L78.6288 86.9943Z" fill="#FFB6B6"/>
<path d="M79.0983 88.7909L73.1627 88.7906V88.7151C73.1628 88.0981 73.4062 87.5065 73.8394 87.0703C74.2727 86.6341 74.8603 86.389 75.473 86.389L76.5574 85.5608L78.5803 86.3891L79.0985 86.3891L79.0983 88.7909Z" fill="#2F2E41"/>
<path d="M77.8321 47.9104L89.8057 48.2118C92.0797 49.4554 92.1142 52.147 91.3691 55.3427C91.3691 55.3427 91.6207 57.2421 91.1176 57.7486C90.6145 58.2551 90.363 58.2551 90.6145 59.1415C90.8661 60.0279 89.5371 61.4757 89.6985 61.6382C89.8599 61.8007 90.2372 62.6871 90.2372 62.6871L88.9795 69.9049C88.9795 69.9049 88.0992 82.4412 87.8476 82.6944C87.5961 82.9477 87.3446 82.6944 87.5961 83.3276C87.8476 83.9607 88.0992 83.7074 87.8476 83.9607C87.6248 84.2026 87.4149 84.4562 87.2188 84.7205H84.1781C84.1781 84.7205 83.9489 83.4542 83.9489 83.3276C83.9489 83.2009 83.6973 82.4412 83.6973 82.3145C83.6973 82.1879 83.9196 81.9641 83.9196 81.9641C83.9965 81.7066 84.0484 81.4423 84.0746 81.1749C84.0746 80.9216 84.8292 71.1712 84.8292 71.1712L83.32 58.5084L79.6728 70.918C79.6728 70.918 79.6728 81.808 79.4212 82.0613C79.1697 82.3145 79.1697 82.1879 79.2955 82.6944C79.4212 83.2009 79.9243 83.0743 79.547 83.4542C79.1697 83.8341 79.0439 83.2009 79.1697 83.8341L79.2955 84.4672L75.5224 84.5215C75.5224 84.5215 75.0194 83.4542 75.2709 83.0743C75.5224 82.6944 75.5073 82.7981 75.2005 82.1764C74.8936 81.5548 74.7678 81.4281 74.8936 81.3015C75.0194 81.1749 75.0194 80.5014 75.0194 80.5014L75.6482 68.3854C75.6482 68.3854 75.774 55.5959 75.774 55.2161C75.7835 55.0206 75.7477 54.8256 75.6695 54.6464V54.1307L76.1513 52.3036L77.8321 47.9104Z" fill="#2F2E41"/>
<path d="M85.0248 22.8427C87.0794 22.8427 88.745 21.1656 88.745 19.0969C88.745 17.0282 87.0794 15.3512 85.0248 15.3512C82.9701 15.3512 81.3045 17.0282 81.3045 19.0969C81.3045 21.1656 82.9701 22.8427 85.0248 22.8427Z" fill="#FFB6B6"/>
<path d="M83.1646 25.3183C82.3631 25.7981 81.8837 26.6796 81.6085 27.5765C81.0989 29.2372 80.7922 30.9541 80.6951 32.6894L80.4044 37.8847L76.8042 48.9468C79.9244 51.6051 91.6528 49.551 91.6528 49.551C91.6528 49.551 92.0129 49.4301 91.6528 49.0676C91.2928 48.7051 90.9423 49.0263 91.3023 48.6638C91.6624 48.3013 91.4142 48.7051 91.2942 48.3426C91.1742 47.9802 91.2942 48.2218 91.4142 48.101C91.5342 47.9802 90.4851 46.8927 90.4851 46.8927L91.4452 40.5429L92.6453 27.7349C91.2052 25.9225 88.3089 24.8541 88.3089 24.8541L87.5606 23.4978L83.8189 23.7992L83.1646 25.3183Z" fill="#E6E6E6"/>
<path d="M82.6544 16.8987C82.7983 16.8998 82.9416 16.9187 83.0809 16.955C83.3557 17.0215 83.6347 17.0686 83.916 17.096C84.7772 17.1776 85.5865 17.5474 86.2145 18.1464C86.8425 18.7453 87.253 19.5389 87.3805 20.4004C87.5967 20.2106 88.0886 19.8615 88.4918 20.186C88.4979 20.1911 88.5015 20.1938 88.5157 20.187C88.7835 20.0591 89.2588 18.4849 89.2732 17.0989C89.2808 16.3632 89.1657 15.4238 88.5748 15.1263L88.5437 15.1106L88.5355 15.0766C88.496 14.9111 88.0549 14.6286 87.2883 14.4087C85.8951 14.0092 83.8183 13.2309 82.6489 14.3763C82.5604 14.7625 82.2725 15.5888 81.9816 15.6825C81.6595 15.7862 81.3814 15.8756 81.3375 16.2734C81.3009 16.8395 81.3036 17.4075 81.3455 17.9732C81.4546 17.627 81.6688 17.324 81.958 17.1069C82.1636 16.9675 82.4066 16.8949 82.6544 16.8987Z" fill="#2F2E41"/>
<path d="M75.7299 37.5954L81.807 33.6769L78.7461 29.5802L75.7238 33.3235L66.3067 33.905C66.059 33.6585 65.7454 33.4898 65.4042 33.4196C65.063 33.3495 64.7088 33.3808 64.385 33.5097C64.0611 33.6387 63.7815 33.8597 63.5803 34.1459C63.379 34.4321 63.2648 34.7711 63.2516 35.1215C63.2384 35.4719 63.3267 35.8186 63.5058 36.1193C63.6849 36.4201 63.9471 36.6619 64.2603 36.8152C64.5735 36.9685 64.9243 37.0268 65.2698 36.9828C65.6153 36.9389 65.9407 36.7947 66.2063 36.5678L75.7299 37.5954Z" fill="#FFB6B6"/>
<path d="M87.4473 28.2073C87.8 30.3565 81.1394 34.4605 81.1394 34.4605C81.1393 33.956 77.1638 37.7642 76.9844 37.3458C76.4744 36.1568 76.1159 33.3406 75.4032 32.8898C74.9957 32.632 77.8577 30.2103 77.8577 30.2103C77.8577 30.2103 79.3558 28.6907 81.3218 26.774C81.8676 26.2218 82.5434 25.8175 83.2861 25.5989C84.0288 25.3803 84.8144 25.3545 85.5697 25.5238C85.5697 25.5238 87.0946 26.0582 87.4473 28.2073Z" fill="#E6E6E6"/>
<path d="M99.9731 38.6241L95.9534 32.5897L91.9503 35.7576L95.7313 38.7207L96.5081 48.1878C96.2686 48.4423 96.1077 48.7615 96.0453 49.1065C95.9828 49.4515 96.0214 49.8073 96.1563 50.1306C96.2912 50.4539 96.5166 50.7306 96.8051 50.9272C97.0935 51.1237 97.4325 51.2314 97.7808 51.2373C98.129 51.2432 98.4714 51.147 98.7662 50.9603C99.0611 50.7736 99.2956 50.5047 99.4412 50.1861C99.5868 49.8676 99.6372 49.5133 99.5863 49.1664C99.5354 48.8195 99.3853 48.495 99.1544 48.2325L99.9731 38.6241Z" fill="#FFB6B6"/>
<path d="M90.4028 27.0279C92.5294 26.6273 96.7456 33.2451 96.7456 33.2451C96.2447 33.2559 100.11 37.177 99.6987 37.3665C98.5288 37.905 95.74 38.3256 95.3074 39.0525C95.0601 39.4682 92.5948 36.6385 92.5948 36.6385C92.5948 36.6385 91.0542 35.1626 89.1093 33.2242C88.5494 32.6865 88.1337 32.0148 87.9009 31.2718C87.6681 30.5288 87.6258 29.7386 87.7779 28.9746C87.7779 28.9746 88.2762 27.4284 90.4028 27.0279Z" fill="#E6E6E6"/>
<path d="M101 88.8207C101 88.8443 100.995 88.8676 100.987 88.8894C100.978 88.9112 100.965 88.931 100.948 88.9476C100.931 88.9643 100.912 88.9775 100.89 88.9865C100.868 88.9955 100.845 89.0001 100.822 89H58.8709C58.8237 89 58.7783 88.9811 58.7449 88.9475C58.7115 88.9139 58.6928 88.8682 58.6928 88.8207C58.6928 88.7731 58.7115 88.7275 58.7449 88.6939C58.7783 88.6603 58.8237 88.6414 58.8709 88.6414H100.822C100.845 88.6413 100.868 88.6459 100.89 88.6549C100.912 88.6639 100.931 88.6771 100.948 88.6937C100.965 88.7104 100.978 88.7302 100.987 88.752C100.995 88.7738 101 88.7971 101 88.8207Z" fill="#CCCCCC"/>
<path d="M62.1372 34.4778H11.224C10.4286 34.4787 9.66596 34.7972 9.1035 35.3636C8.54104 35.9299 8.22465 36.6977 8.22375 37.4986V69.4139C8.22466 70.2148 8.54104 70.9826 9.1035 71.5489C9.66596 72.1152 10.4286 72.4338 11.224 72.4347H62.1372C62.9326 72.4338 63.6953 72.1152 64.2577 71.5489C64.8202 70.9826 65.1366 70.2148 65.1375 69.4139V37.4986C65.1366 36.6977 64.8202 35.9299 64.2578 35.3635C63.6953 34.7972 62.9327 34.4787 62.1372 34.4778Z" fill="#F7941D"/>
<path d="M62.1372 34.4778H11.224C10.4286 34.4787 9.66596 34.7972 9.1035 35.3636C8.54104 35.9299 8.22465 36.6977 8.22375 37.4986V69.4139C8.22466 70.2148 8.54104 70.9826 9.1035 71.5489C9.66596 72.1152 10.4286 72.4338 11.224 72.4347H62.1372C62.9326 72.4338 63.6953 72.1152 64.2577 71.5489C64.8202 70.9826 65.1366 70.2148 65.1375 69.4139V37.4986C65.1366 36.6977 64.8202 35.9299 64.2578 35.3635C63.6953 34.7972 62.9327 34.4787 62.1372 34.4778ZM63.1218 57.403C63.1097 60.6521 61.8332 63.7671 59.5662 66.0796C57.2993 68.392 54.2224 69.7178 50.9958 69.7725C45.8297 69.8402 53.8541 69.8666 47.6235 69.8666C33.376 69.8666 18.5198 69.7296 12.9768 69.6407C12.2475 69.6255 11.553 69.3239 11.0416 68.8003C10.5301 68.2766 10.2422 67.5724 10.2394 66.838V37.5009C10.2397 37.2379 10.3434 36.9858 10.5279 36.7996C10.7124 36.6134 10.9626 36.5083 11.2238 36.5074H62.1352C62.3963 36.5077 62.6467 36.6121 62.8316 36.7978C63.0165 36.9835 63.1209 37.2353 63.1218 37.4983V57.403Z" fill="#3F3D56"/>
<path d="M55.8699 16.0999H17.0794C16.7362 16.1003 16.4015 16.2075 16.121 16.4066C15.8405 16.6058 15.6279 16.8872 15.5122 17.2126L9.52125 34.1355C9.43183 34.3881 9.40395 34.6586 9.43995 34.9243C9.47594 35.19 9.57476 35.4431 9.72809 35.6624C9.88143 35.8816 10.0848 36.0606 10.3211 36.1843C10.5574 36.308 10.8198 36.3728 11.0861 36.3731L63.1106 36.4661H63.1129C63.3882 36.4661 63.6592 36.3973 63.9016 36.2659C64.144 36.1344 64.3503 35.9445 64.5018 35.7131C64.6534 35.4817 64.7455 35.216 64.77 34.9399C64.7945 34.6638 64.7506 34.3859 64.6421 34.1311L57.3991 17.1151C57.2711 16.8137 57.0579 16.5567 56.786 16.3762C56.5141 16.1957 56.1956 16.0996 55.8699 16.0999Z" fill="#3F3D56"/>
<path d="M64.7768 34.4986C64.7766 34.7255 64.7308 34.95 64.6421 35.1586L57.3996 48.257C57.2706 48.5578 57.0571 48.8141 56.7853 48.9943C56.5135 49.1745 56.1954 49.2708 55.8699 49.2712H17.08C16.7366 49.2708 16.4018 49.1639 16.1211 48.9648C15.8403 48.7658 15.6275 48.4844 15.5114 48.1591L9.52165 35.1541C9.44823 34.9469 9.41609 34.7272 9.42705 34.5075C9.43802 34.2878 9.49189 34.0724 9.58558 33.8737C9.67926 33.675 9.81093 33.4968 9.97305 33.3493C10.1352 33.2018 10.3246 33.088 10.5304 33.0143C10.7085 32.9495 10.8964 32.9164 11.0857 32.9163L17.4407 32.9043L20.0345 32.8997L54.1652 32.8395L56.7605 32.8349L63.111 32.8229H63.1125C63.5539 32.823 63.9771 32.9995 64.2892 33.3138C64.6013 33.628 64.7767 34.0542 64.7768 34.4986Z" fill="#3F3D56"/>
<path d="M15.0409 58.4178C15.8101 58.4178 26.373 59.0678 26.373 59.8423C26.373 60.6168 15.8101 61.2225 15.0409 61.2225C14.6715 61.2225 14.3172 61.0747 14.056 60.8117C13.7948 60.5487 13.6481 60.1921 13.6481 59.8202C13.6481 59.4482 13.7948 59.0916 14.056 58.8286C14.3172 58.5656 14.6715 58.4178 15.0409 58.4178Z" fill="#3F3D56"/>
<path d="M53.4543 5.80481H20.7469C19.8703 5.80583 19.03 6.15687 18.4102 6.78093C17.7903 7.40499 17.4417 8.2511 17.4407 9.13365V49.2711H55.8699C56.1855 49.2721 56.4946 49.1816 56.7605 49.0104V9.13365C56.7594 8.2511 56.4108 7.40499 55.791 6.78093C55.1712 6.15687 54.3308 5.80583 53.4543 5.80481Z" fill="#E6E6E6"/>
<path d="M40.9703 8.50378H23.0458C22.2477 8.50457 21.4824 8.82405 20.9178 9.39216C20.3533 9.96028 20.0356 10.7306 20.0345 11.5343V49.2712H54.1652V21.789C54.1612 18.2668 52.7697 14.89 50.296 12.3994C47.8224 9.90884 44.4686 8.50785 40.9703 8.50378Z" fill="white"/>
<path d="M48.3505 45.9197H25.8491C25.6546 45.9197 25.4681 45.9975 25.3306 46.136C25.193 46.2744 25.1158 46.4622 25.1158 46.6581C25.1158 46.8539 25.193 47.0417 25.3306 47.1802C25.4681 47.3187 25.6546 47.3965 25.8491 47.3965H48.3505C48.545 47.3965 48.7316 47.3187 48.8691 47.1802C49.0066 47.0417 49.0839 46.8539 49.0839 46.6581C49.0839 46.4622 49.0066 46.2744 48.8691 46.136C48.7316 45.9975 48.545 45.9197 48.3505 45.9197Z" fill="#E4E4E4"/>
<path d="M48.3505 42.9993H25.8492C25.6544 42.9993 25.4677 43.0771 25.33 43.2158C25.1924 43.3544 25.115 43.5424 25.115 43.7384C25.115 43.9345 25.1924 44.1225 25.33 44.2611C25.4677 44.3997 25.6544 44.4776 25.8492 44.4776H48.3505C48.5452 44.4776 48.732 44.3997 48.8696 44.2611C49.0073 44.1225 49.0847 43.9345 49.0847 43.7384C49.0847 43.5424 49.0073 43.3544 48.8696 43.2158C48.732 43.0771 48.5452 42.9993 48.3505 42.9993Z" fill="#E4E4E4"/>
<path d="M35.6031 40.0803H25.8491C25.6546 40.0803 25.4681 40.1581 25.3306 40.2966C25.193 40.4351 25.1158 40.6229 25.1158 40.8187C25.1158 41.0146 25.193 41.2024 25.3306 41.3409C25.4681 41.4793 25.6546 41.5571 25.8491 41.5571H35.6031C35.7976 41.5571 35.9842 41.4793 36.1217 41.3409C36.2592 41.2024 36.3365 41.0146 36.3365 40.8187C36.3365 40.6229 36.2592 40.4351 36.1217 40.2966C35.9842 40.1581 35.7976 40.0803 35.6031 40.0803Z" fill="#E4E4E4"/>
<path d="M48.3505 33.9651H25.8492C25.6544 33.9651 25.4677 34.043 25.33 34.1816C25.1924 34.3202 25.115 34.5082 25.115 34.7042C25.115 34.9003 25.1924 35.0883 25.33 35.2269C25.4677 35.3655 25.6544 35.4434 25.8492 35.4434H48.3505C48.5452 35.4434 48.732 35.3655 48.8696 35.2269C49.0073 35.0883 49.0847 34.9003 49.0847 34.7042C49.0847 34.5082 49.0073 34.3202 48.8696 34.1816C48.732 34.043 48.5452 33.9651 48.3505 33.9651Z" fill="#E4E4E4"/>
<path d="M48.3505 31.0461H25.8491C25.6546 31.0461 25.4681 31.1239 25.3306 31.2624C25.193 31.4009 25.1158 31.5887 25.1158 31.7845C25.1158 31.9804 25.193 32.1682 25.3306 32.3067C25.4681 32.4452 25.6546 32.5229 25.8491 32.5229H48.3505C48.545 32.5229 48.7316 32.4452 48.8691 32.3067C49.0066 32.1682 49.0839 31.9804 49.0839 31.7845C49.0839 31.5887 49.0066 31.4009 48.8691 31.2624C48.7316 31.1239 48.545 31.0461 48.3505 31.0461Z" fill="#E4E4E4"/>
<path d="M35.6031 28.1257H25.8491C25.6544 28.1257 25.4677 28.2036 25.33 28.3422C25.1923 28.4808 25.115 28.6689 25.115 28.8649C25.115 29.0609 25.1923 29.2489 25.33 29.3876C25.4677 29.5262 25.6544 29.604 25.8491 29.604H35.6031C35.7978 29.604 35.9845 29.5262 36.1222 29.3876C36.2599 29.2489 36.3372 29.0609 36.3372 28.8649C36.3372 28.6689 36.2599 28.4808 36.1222 28.3422C35.9845 28.2036 35.7978 28.1257 35.6031 28.1257Z" fill="#E4E4E4"/>
<path d="M48.3505 22.0105H25.8492C25.6544 22.0105 25.4677 22.0884 25.33 22.227C25.1924 22.3656 25.115 22.5536 25.115 22.7497C25.115 22.9457 25.1924 23.1337 25.33 23.2723C25.4677 23.4109 25.6544 23.4888 25.8492 23.4888H48.3505C48.5452 23.4888 48.732 23.4109 48.8696 23.2723C49.0073 23.1337 49.0847 22.9457 49.0847 22.7497C49.0847 22.5536 49.0073 22.3656 48.8696 22.227C48.732 22.0884 48.5452 22.0105 48.3505 22.0105Z" fill="#F7941D"/>
<path d="M48.3505 19.0916H25.8492C25.6544 19.0916 25.4677 19.1694 25.33 19.308C25.1924 19.4467 25.115 19.6347 25.115 19.8307C25.115 20.0267 25.1924 20.2148 25.33 20.3534C25.4677 20.492 25.6544 20.5699 25.8492 20.5699H48.3505C48.5452 20.5699 48.732 20.492 48.8696 20.3534C49.0073 20.2148 49.0847 20.0267 49.0847 19.8307C49.0847 19.6347 49.0073 19.4467 48.8696 19.308C48.732 19.1694 48.5452 19.0916 48.3505 19.0916Z" fill="#F7941D"/>
<path d="M35.6031 16.1711H25.8491C25.6544 16.1711 25.4677 16.249 25.33 16.3876C25.1923 16.5263 25.115 16.7143 25.115 16.9103C25.115 17.1063 25.1923 17.2943 25.33 17.433C25.4677 17.5716 25.6544 17.6495 25.8491 17.6495H35.6031C35.7978 17.6495 35.9845 17.5716 36.1222 17.433C36.2599 17.2943 36.3372 17.1063 36.3372 16.9103C36.3372 16.7143 36.2599 16.5263 36.1222 16.3876C35.9845 16.249 35.7978 16.1711 35.6031 16.1711Z" fill="#F7941D"/>
<path d="M55.5342 11.5019C58.6888 11.5019 61.2461 8.92708 61.2461 5.75093C61.2461 2.57478 58.6888 0 55.5342 0C52.3797 0 49.8224 2.57478 49.8224 5.75093C49.8224 8.92708 52.3797 11.5019 55.5342 11.5019Z" fill="#F7941D"/>
<path d="M54.755 8.74398C54.6564 8.74398 54.5591 8.72085 54.4709 8.67643C54.3827 8.632 54.306 8.5675 54.2468 8.48804L52.6885 6.39608C52.6382 6.3289 52.6015 6.25237 52.5806 6.1709C52.5597 6.08942 52.555 6.00458 52.5667 5.92126C52.5784 5.83793 52.6063 5.75776 52.6489 5.68532C52.6914 5.61288 52.7477 5.5496 52.8146 5.49911C52.8814 5.44862 52.9576 5.41191 53.0385 5.39108C53.1195 5.37025 53.2038 5.36572 53.2865 5.37774C53.3692 5.38976 53.4488 5.41809 53.5206 5.46112C53.5925 5.50414 53.6551 5.56102 53.7051 5.62848L54.7246 6.99699L57.343 3.04256C57.4365 2.90139 57.5818 2.80339 57.747 2.77012C57.9123 2.73684 58.0839 2.77102 58.2241 2.86513C58.3643 2.95925 58.4616 3.10559 58.4947 3.27196C58.5277 3.43833 58.4938 3.6111 58.4003 3.75227L55.2838 8.4591C55.2274 8.54422 55.1516 8.6145 55.0626 8.66403C54.9737 8.71356 54.8743 8.74091 54.7727 8.74377C54.7668 8.74387 54.7609 8.74398 54.755 8.74398Z" fill="white"/>
</g>
<defs>
<clipPath id="clip0_991_1191">
<rect width="101" height="89" fill="white"/>
</clipPath>
</defs>
</svg>
