<svg width="322" height="287" viewBox="0 0 322 287" fill="none" xmlns="http://www.w3.org/2000/svg">
<path d="M231.51 55.5197L163.49 30.4697L96.14 55.1897C87.54 59.3597 80 61.8497 80 70.0697V110.98C80 139.39 87.26 167.54 102.19 192.39C114.75 213.3 134.21 234.84 164.16 248.53C191.69 239.36 212.24 214.9 224.81 193.99C239.74 169.14 247 140.98 247 112.58V75.7897C246.99 64.0597 240.94 58.3397 231.51 55.5197Z" fill="#D7D9E4"/>
<g opacity="0.8">
<path d="M231.51 55.5197L163.49 30.4697L96.14 55.1897C87.54 59.3597 80 61.8497 80 70.0697V110.98C80 139.39 87.26 167.54 102.19 192.39C114.75 213.3 134.21 234.84 164.16 248.53C191.69 239.36 212.24 214.9 224.81 193.99C239.74 169.14 247 140.98 247 112.58V75.7897C246.99 64.0597 240.94 58.3397 231.51 55.5197Z" fill="#FFDFB9"/>
</g>
<path d="M250.022 232.66C250.022 232.66 250.292 232.28 250.832 231.57C250.972 231.39 251.122 231.19 251.292 230.97C251.442 230.74 251.582 230.47 251.752 230.18C252.082 229.6 252.492 228.95 252.782 228.12C252.942 227.71 253.132 227.29 253.292 226.83C253.422 226.36 253.562 225.87 253.702 225.35C253.872 224.84 253.952 224.28 254.042 223.7C254.122 223.12 254.272 222.52 254.292 221.88C254.562 219.34 254.402 216.38 253.892 213.11C252.882 206.55 250.092 198.82 245.832 190.42C241.582 182 235.722 172.95 228.532 163.52C221.332 154.08 212.682 144.33 202.732 134.54C192.772 124.76 181.502 114.94 168.862 105.63C162.542 100.98 155.872 96.4804 148.842 92.2304C141.822 87.9804 134.412 84.0104 126.602 80.5704C118.792 77.1704 110.552 74.2204 101.862 72.8104C97.5317 72.1404 93.0617 71.8204 88.6717 72.4904C86.4817 72.8304 84.3217 73.4204 82.3017 74.3404C80.3017 75.3104 78.4717 76.6104 76.9517 78.2504C75.4917 79.9404 74.4117 81.9104 73.6617 84.0104C72.9917 86.1304 72.6317 88.3404 72.5517 90.5504C72.3817 94.9904 73.2117 99.4004 74.3717 103.63C76.7517 112.11 80.6317 119.96 84.8917 127.34C89.2017 134.71 93.9817 141.62 99.0117 148.11C104.032 154.61 109.272 160.73 114.602 166.48C125.292 177.98 136.332 188.06 147.182 196.84C158.042 205.61 168.712 213.1 178.912 219.17C189.102 225.24 198.762 230.03 207.612 233.3C216.442 236.58 224.432 238.46 231.062 238.72C234.372 238.85 237.332 238.68 239.822 238.12C240.452 238.03 241.032 237.8 241.602 237.66C242.172 237.51 242.712 237.36 243.202 237.13C243.702 236.93 244.172 236.74 244.632 236.56C245.072 236.35 245.462 236.11 245.852 235.9C246.642 235.52 247.242 235.04 247.772 234.64C248.032 234.44 248.292 234.27 248.502 234.09C248.702 233.9 248.882 233.72 249.042 233.57C249.682 232.97 250.022 232.66 250.022 232.66C250.022 232.66 249.702 232.99 249.072 233.63C248.912 233.79 248.732 233.97 248.532 234.16C248.322 234.34 248.072 234.52 247.802 234.72C247.272 235.12 246.672 235.61 245.882 236C245.502 236.21 245.102 236.45 244.662 236.67C244.212 236.86 243.732 237.05 243.232 237.26C242.742 237.49 242.192 237.64 241.622 237.8C241.052 237.95 240.472 238.18 239.832 238.27C237.332 238.85 234.352 239.04 231.032 238.92C224.372 238.69 216.342 236.83 207.482 233.57C198.602 230.32 188.922 225.55 178.702 219.49C168.472 213.42 157.782 205.94 146.892 197.18C136.022 188.4 124.952 178.32 114.232 166.81C108.882 161.05 103.632 154.93 98.6017 148.42C93.5617 141.92 88.7617 134.99 84.4417 127.6C80.1617 120.2 76.2617 112.32 73.8617 103.77C72.7017 99.5104 71.8517 95.0604 72.0217 90.5404C72.1017 88.2804 72.4717 86.0304 73.1617 83.8504C73.9217 81.7004 75.0517 79.6604 76.5517 77.9104C78.1217 76.2104 80.0217 74.8704 82.0717 73.8704C84.1517 72.9304 86.3617 72.3204 88.5917 71.9804C93.0617 71.3004 97.5817 71.6304 101.942 72.3104C110.702 73.7304 118.972 76.7004 126.812 80.1104C134.642 83.5604 142.062 87.5404 149.102 91.8104C156.142 96.0704 162.822 100.59 169.152 105.25C181.802 114.58 193.082 124.43 203.042 134.24C212.992 144.06 221.642 153.83 228.832 163.3C236.022 172.76 241.862 181.85 246.102 190.3C250.342 198.73 253.112 206.49 254.102 213.09C254.592 216.38 254.752 219.36 254.462 221.91C254.442 222.55 254.272 223.15 254.192 223.74C254.102 224.32 254.012 224.88 253.832 225.4C253.682 225.92 253.542 226.42 253.412 226.89C253.242 227.35 253.052 227.77 252.882 228.18C252.582 229.01 252.162 229.66 251.822 230.24C251.652 230.52 251.512 230.8 251.352 231.03C251.182 231.25 251.022 231.45 250.882 231.62C250.312 232.31 250.022 232.66 250.022 232.66Z" fill="#F7941D"/>
<path d="M279.44 155.39C279.44 155.39 279.39 154.93 279.32 154.04C279.3 153.82 279.28 153.57 279.26 153.29C279.22 153.02 279.14 152.72 279.08 152.4C278.94 151.75 278.81 150.99 278.48 150.18C278.33 149.77 278.19 149.33 278.01 148.88C277.79 148.44 277.57 147.98 277.33 147.5C277.11 147.01 276.81 146.53 276.49 146.04C276.16 145.55 275.88 145 275.47 144.51C273.98 142.43 271.89 140.33 269.33 138.23C264.21 134.01 256.99 130.09 248.22 126.66C239.44 123.21 229.05 120.35 217.4 118.1C205.75 115.85 192.8 114.33 178.86 113.65C164.92 112.98 149.97 113.16 134.34 114.62C126.53 115.36 118.55 116.44 110.48 117.95C102.41 119.45 94.24 121.42 86.12 124.05C78.03 126.72 69.91 129.99 62.49 134.73C58.81 137.11 55.26 139.85 52.43 143.27C51.02 144.98 49.81 146.86 48.9 148.89C48.06 150.95 47.55 153.14 47.51 155.37C47.55 157.6 48.05 159.8 48.89 161.85C49.8 163.88 51 165.76 52.42 167.47C55.25 170.9 58.8 173.63 62.48 176.02C69.9 180.76 78.02 184.04 86.11 186.71C94.23 189.34 102.4 191.31 110.47 192.81C118.54 194.32 126.52 195.4 134.33 196.14C149.96 197.6 164.91 197.78 178.85 197.11C192.79 196.43 205.74 194.91 217.39 192.66C229.04 190.41 239.43 187.55 248.21 184.1C256.98 180.67 264.2 176.75 269.32 172.53C271.88 170.43 273.97 168.33 275.46 166.25C275.87 165.76 276.15 165.21 276.48 164.72C276.8 164.23 277.11 163.75 277.32 163.26C277.56 162.78 277.79 162.32 278 161.88C278.18 161.43 278.32 160.99 278.47 160.58C278.8 159.77 278.93 159.01 279.07 158.36C279.14 158.04 279.21 157.74 279.25 157.47C279.27 157.19 279.29 156.94 279.31 156.72C279.39 155.84 279.44 155.39 279.44 155.39C279.44 155.39 279.43 155.85 279.37 156.74C279.36 156.97 279.34 157.22 279.32 157.49C279.29 157.77 279.21 158.06 279.15 158.39C279.02 159.04 278.9 159.81 278.57 160.63C278.42 161.04 278.29 161.49 278.11 161.94C277.9 162.38 277.67 162.85 277.44 163.33C277.22 163.83 276.92 164.31 276.6 164.81C276.27 165.3 275.99 165.86 275.58 166.35C274.1 168.45 272 170.57 269.45 172.69C264.32 176.95 257.1 180.91 248.32 184.37C239.53 187.85 229.13 190.74 217.47 193.02C205.8 195.3 192.84 196.84 178.88 197.54C164.92 198.23 149.95 198.07 134.29 196.62C126.46 195.88 118.47 194.81 110.38 193.3C102.29 191.8 94.1 189.83 85.95 187.19C77.83 184.52 69.68 181.23 62.2 176.45C58.49 174.04 54.9 171.28 52.02 167.8C50.58 166.06 49.35 164.13 48.42 162.05C47.56 159.94 47.04 157.67 47 155.36C47.04 153.05 47.56 150.79 48.43 148.67C49.36 146.58 50.6 144.66 52.04 142.92C54.93 139.44 58.52 136.68 62.22 134.28C69.7 129.51 77.85 126.22 85.97 123.55C94.11 120.91 102.3 118.94 110.39 117.44C118.48 115.93 126.47 114.86 134.3 114.12C149.95 112.67 164.93 112.51 178.88 113.2C192.84 113.9 205.8 115.44 217.47 117.72C229.13 120 239.54 122.89 248.33 126.37C257.11 129.84 264.34 133.79 269.46 138.05C272.02 140.17 274.11 142.29 275.6 144.39C276.01 144.88 276.29 145.44 276.62 145.93C276.94 146.43 277.24 146.91 277.46 147.41C277.7 147.9 277.92 148.36 278.13 148.8C278.31 149.25 278.45 149.7 278.59 150.11C278.92 150.93 279.04 151.69 279.17 152.35C279.23 152.68 279.31 152.97 279.34 153.25C279.36 153.53 279.37 153.78 279.39 154C279.43 154.93 279.44 155.39 279.44 155.39Z" fill="#F7941D"/>
<path d="M234.995 59.2C234.995 59.2 234.605 58.9601 233.855 58.4701C233.665 58.3501 233.455 58.21 233.225 58.06C232.985 57.92 232.705 57.8001 232.405 57.6601C231.805 57.3701 231.125 57.01 230.285 56.78C229.865 56.65 229.435 56.4901 228.965 56.3601C228.485 56.2601 227.985 56.1601 227.455 56.0501C226.935 55.9201 226.375 55.8701 225.785 55.8201C225.195 55.7801 224.595 55.6701 223.955 55.6901C221.405 55.5901 218.455 55.96 215.235 56.7C208.755 58.16 201.245 61.4701 193.155 66.3001C185.055 71.1201 176.425 77.5901 167.505 85.4101C158.585 93.2401 149.455 102.54 140.375 113.14C131.305 123.75 122.285 135.67 113.865 148.92C109.665 155.55 105.625 162.51 101.875 169.82C98.1146 177.12 94.6646 184.78 91.7746 192.81C88.9246 200.84 86.5446 209.26 85.7446 218.03C85.3746 222.4 85.3647 226.88 86.3247 231.22C86.8147 233.38 87.5547 235.49 88.6047 237.45C89.7147 239.37 91.1346 241.12 92.8746 242.52C94.6646 243.86 96.7046 244.81 98.8446 245.4C101.005 245.92 103.235 246.13 105.455 246.06C109.895 245.92 114.235 244.79 118.375 243.35C126.665 240.39 134.235 235.98 141.305 231.22C148.365 226.42 154.925 221.17 161.055 215.71C167.195 210.26 172.935 204.61 178.305 198.89C189.035 187.44 198.335 175.72 206.345 164.3C214.345 152.86 221.075 141.7 226.435 131.11C231.795 120.52 235.905 110.56 238.555 101.51C241.215 92.48 242.545 84.3701 242.345 77.7401C242.245 74.4301 241.875 71.49 241.145 69.04C241.015 68.42 240.745 67.8601 240.565 67.3001C240.375 66.7401 240.185 66.2101 239.925 65.7401C239.695 65.2601 239.465 64.7901 239.255 64.3601C239.015 63.9401 238.745 63.5601 238.515 63.1901C238.075 62.4301 237.555 61.8601 237.135 61.3601C236.915 61.1101 236.735 60.87 236.535 60.67C236.325 60.48 236.145 60.3201 235.975 60.1601C235.325 59.5201 234.995 59.2 234.995 59.2C234.995 59.2 235.345 59.4901 236.025 60.0801C236.195 60.2301 236.385 60.3901 236.595 60.5801C236.795 60.7801 236.985 61.0201 237.205 61.2701C237.635 61.7701 238.175 62.3401 238.615 63.1001C238.855 63.4701 239.125 63.8501 239.365 64.2701C239.585 64.7101 239.815 65.1701 240.055 65.6601C240.315 66.1401 240.515 66.67 240.705 67.23C240.895 67.79 241.165 68.35 241.295 68.98C242.045 71.44 242.435 74.3901 242.555 77.7101C242.785 84.3701 241.475 92.5101 238.845 101.57C236.215 110.65 232.125 120.64 226.775 131.26C221.425 141.88 214.705 153.07 206.705 164.53C198.695 175.98 189.395 187.72 178.655 199.2C173.275 204.93 167.535 210.59 161.385 216.06C155.245 221.54 148.665 226.8 141.595 231.62C134.505 236.4 126.915 240.83 118.555 243.81C114.385 245.27 110.005 246.41 105.475 246.56C103.215 246.63 100.945 246.42 98.7247 245.88C96.5247 245.27 94.4146 244.29 92.5647 242.9C90.7647 241.45 89.2946 239.65 88.1546 237.67C87.0746 235.66 86.3147 233.5 85.8247 231.3C84.8447 226.88 84.8646 222.36 85.2346 217.96C86.0446 209.12 88.4446 200.67 91.3046 192.62C94.2046 184.57 97.6647 176.89 101.445 169.58C105.205 162.26 109.255 155.29 113.465 148.65C121.905 135.39 130.955 123.46 140.045 112.85C149.155 102.25 158.315 92.95 167.265 85.12C176.215 77.3 184.875 70.84 193.005 66.03C201.125 61.21 208.675 57.92 215.185 56.48C218.435 55.76 221.395 55.4001 223.955 55.5201C224.595 55.5001 225.205 55.6201 225.795 55.6601C226.385 55.7101 226.945 55.77 227.475 55.9C228.005 56.01 228.505 56.1201 228.985 56.2201C229.455 56.3601 229.895 56.5201 230.305 56.6601C231.155 56.9001 231.835 57.2801 232.425 57.5701C232.725 57.7201 233.005 57.8501 233.245 57.9901C233.475 58.1501 233.685 58.29 233.865 58.42C234.625 58.93 234.995 59.2 234.995 59.2Z" fill="#F7941D"/>
<path d="M166.36 203.3C168.04 204.98 168.04 207.71 166.36 209.4C164.68 211.08 161.95 211.08 160.26 209.4C158.58 207.72 158.58 204.99 160.26 203.3C161.95 201.62 164.68 201.62 166.36 203.3Z" fill="#F7941D"/>
<path d="M167.62 69.6996C167.62 72.0796 165.69 74.0096 163.31 74.0096C160.93 74.0096 159 72.0796 159 69.6996C159 67.3196 160.93 65.3896 163.31 65.3896C165.69 65.3896 167.62 67.3096 167.62 69.6996Z" fill="#F7941D"/>
<path d="M164.2 217.48C164.2 218.09 163.71 218.58 163.1 218.58C162.49 218.58 162 218.09 162 217.48C162 216.87 162.49 216.38 163.1 216.38C163.71 216.38 164.2 216.87 164.2 217.48Z" fill="#F7941D"/>
<path d="M164.2 96.6596C164.2 97.2696 163.71 97.7596 163.1 97.7596C162.49 97.7596 162 97.2696 162 96.6596C162 96.0496 162.49 95.5596 163.1 95.5596C163.71 95.5596 164.2 96.0496 164.2 96.6596Z" fill="#F7941D"/>
<path d="M164.2 155.39C164.2 156 163.71 156.49 163.1 156.49C162.49 156.49 162 156 162 155.39C162 154.78 162.49 154.29 163.1 154.29C163.71 154.29 164.2 154.78 164.2 155.39Z" fill="#F7941D"/>
<path d="M164.2 104.3C164.2 104.91 163.71 105.4 163.1 105.4C162.49 105.4 162 104.91 162 104.3C162 103.69 162.49 103.2 163.1 103.2C163.71 103.21 164.2 103.7 164.2 104.3Z" fill="#F7941D"/>
<path d="M164.605 89.1514C139.841 89.1514 119.756 109.77 119.756 135.214C119.756 160.648 139.831 181.277 164.605 181.277C189.368 181.277 209.453 160.659 209.453 135.214C209.453 109.77 189.378 89.1514 164.605 89.1514ZM164.605 174.377C143.55 174.377 126.474 156.849 126.474 135.214C126.474 113.59 143.54 96.0516 164.605 96.0516C185.659 96.0516 202.735 113.579 202.735 135.214C202.735 156.839 185.669 174.377 164.605 174.377Z" fill="#F7941D"/>
<path d="M164.815 161.819C162.935 161.819 161.135 161.049 159.806 159.683L138.821 138.13C136.052 135.286 136.052 130.676 138.821 127.831C141.59 124.987 146.079 124.987 148.849 127.831L164.815 144.23L204.105 103.876C206.874 101.032 211.363 101.032 214.132 103.876C216.901 106.72 216.901 111.331 214.132 114.175L169.833 159.673C168.504 161.059 166.694 161.819 164.815 161.819Z" fill="#FFB761"/>
</svg>
